<?xml version="1.0" encoding="UTF-8"?>
<!-- Created with Inkscape (http://www.inkscape.org/) -->
<svg width="99.674mm" height="17mm" version="1.1" viewBox="0 0 99.674 17" xmlns="http://www.w3.org/2000/svg">
 <g transform="translate(-72.938 -49.055)" fill="#224f9b">
  <g transform="matrix(.020957 0 0 -.020957 70.287 66.095)">
   <path d="m623.55 484.18-15.953-15.953 15.953-15.954 15.957 15.954zm-62.129-279.58-15.953-15.953 15.953-15.957 15.953 15.957zm-403.84 93.777-15.953-15.953 15.953-15.953 15.953 15.953zm202.34 356.24-15.953-15.953-15.953 15.953 15.953 15.953 15.953-15.953"/>
   <path d="m374.01 662.39c-3.461 13.375-15.598 23.297-30.039 23.297-17.129 0-31.063-13.938-31.063-31.067s13.934-31.062 31.063-31.062c14.441 0 26.578 9.922 30.039 23.297h303.91v-333.89h15.535v349.42zm187.41-442.62c-14.465 0-26.617-9.954-30.059-23.364h-303.89v333.95h-15.536v-349.47h319.45c3.48-13.352 15.605-23.246 30.027-23.246 17.129 0 31.062 13.937 31.062 31.07 0 17.129-13.933 31.067-31.062 31.067zm93.141 248.45c0 17.125-13.934 31.058-31.063 31.058s-31.062-13.933-31.062-31.058c0-14.465 9.945-26.618 23.347-30.063v-303.88h-333.94v-15.531h349.48v319.44c13.348 3.481 23.243 15.606 23.243 30.032zm-489.22 116.5v-272.83c13.379-3.461 23.301-15.602 23.301-30.047 0-17.129-13.938-31.067-31.067-31.067s-31.066 13.938-31.066 31.067c0 14.441 9.922 26.582 23.301 30.047v288.36h349.42v-15.535h-333.89"/>
   <path d="m928.1 410.99h18.421c27.633 0 59.277 4.004 59.277 38.852 0 33.64-31.241 36.445-59.277 36.445h-18.421zm-56.082 119.36h60.488c60.078 0 131.77 2.008 131.77-75.696 0-32.847-22.03-60.082-57.68-64.886v-0.805c15.23-1.199 24.04-16.422 29.64-28.84l44.86-109.35h-62.48l-33.643 87.316c-8.012 20.828-15.223 28.84-38.856 28.84h-18.019v-116.16h-56.082v279.57"/>
   <path d="m1169.3 486.28h-80.1v44.059h216.28v-44.059h-80.1v-235.52h-56.08v235.52"/>
   <path d="m1400.4 410.99h18.42c27.64 0 59.28 4.004 59.28 38.852 0 33.64-31.24 36.445-59.28 36.445h-18.42zm-56.08 119.36h60.48c60.08 0 131.78 2.008 131.78-75.696 0-32.847-22.03-60.082-57.68-64.886v-0.805c15.22-1.199 24.03-16.422 29.64-28.84l44.86-109.35h-62.48l-33.65 87.316c-8.01 20.828-15.22 28.84-38.85 28.84h-18.02v-116.16h-56.08v279.57"/>
  </g>
  <g transform="matrix(.020957 0 0 -.020957 139.11 66.095)">
   <path d="m921.1 486.29h-80.11v44.059h216.28v-44.059h-80.098v-235.52h-56.074v235.52"/>
   <path d="m1096.9 530.35h56.07v-120.16l100.93 120.16h68.89l-114.95-131.77 119.76-147.8h-73.3l-100.53 129.77h-0.8v-129.77h-56.07v279.58"/>
   <path d="m1368.1 530.35h56.07v-120.16l100.93 120.16h68.9l-114.95-131.77 119.76-147.8h-73.31l-100.53 129.77h-0.8v-129.77h-56.07v279.58"/>
   <path d="m623.56 484.18-15.953-15.954 15.953-15.953 15.953 15.953zm-62.129-279.59-15.953-15.953 15.953-15.954 15.953 15.954zm-403.85 93.781-15.953-15.957 15.953-15.953 15.953 15.953zm202.34 356.24-15.953-15.953-15.953 15.953 15.953 15.953 15.953-15.953"/>
   <path d="m374.01 662.39c-3.461 13.375-15.598 23.301-30.039 23.301-17.129 0-31.063-13.942-31.063-31.071 0-17.125 13.934-31.058 31.063-31.058 14.441 0 26.578 9.918 30.043 23.296h303.91v-333.89h15.535v349.42zm187.42-442.62c-14.469 0-26.621-9.954-30.063-23.364h-303.89v333.95h-15.536v-349.48h319.45c3.484-13.352 15.609-23.246 30.031-23.246 17.129 0 31.062 13.941 31.062 31.07 0 17.133-13.933 31.067-31.062 31.067zm93.14 248.45c0 17.129-13.933 31.062-31.062 31.062s-31.063-13.933-31.063-31.062c0-14.461 9.946-26.614 23.348-30.059v-303.89h-333.95v-15.527h349.48v319.44c13.348 3.485 23.242 15.61 23.242 30.032zm-489.22 116.5v-272.83c13.375-3.465 23.297-15.606 23.297-30.051 0-17.129-13.938-31.063-31.067-31.063s-31.062 13.934-31.062 31.063c0 14.445 9.918 26.586 23.297 30.047v288.37h349.43v-15.535h-333.89"/>
  </g>
  <g transform="matrix(.020957 0 0 -.020957 104.68 66.095)">
   <path d="m623.56 484.18-15.953-15.954 15.953-15.953 15.953 15.953zm-62.129-279.59-15.953-15.953 15.953-15.954 15.953 15.954zm-403.85 93.781-15.953-15.957 15.953-15.953 15.953 15.953zm202.34 356.24-15.953-15.953-15.953 15.953 15.953 15.953 15.953-15.953"/>
   <path d="m374.01 662.39c-3.461 13.379-15.598 23.301-30.039 23.301-17.129 0-31.063-13.942-31.063-31.071 0-17.125 13.934-31.058 31.063-31.058 14.441 0 26.578 9.918 30.043 23.296h303.91v-333.89h15.535v349.42zm187.42-442.62c-14.469 0-26.621-9.954-30.063-23.364h-303.89v333.95h-15.536v-349.48h319.45c3.484-13.352 15.609-23.246 30.031-23.246 17.129 0 31.062 13.941 31.062 31.07 0 17.133-13.933 31.067-31.062 31.067zm93.14 248.45c0 17.129-13.933 31.062-31.062 31.062s-31.063-13.933-31.063-31.062c0-14.461 9.946-26.614 23.348-30.059v-303.89h-333.95v-15.527h349.48v319.44c13.348 3.485 23.242 15.61 23.242 30.032zm-489.22 116.5v-272.83c13.375-3.465 23.297-15.606 23.297-30.051 0-17.129-13.938-31.063-31.067-31.063s-31.062 13.934-31.062 31.063c0 14.445 9.918 26.586 23.297 30.047v288.37h349.43v-15.535h-333.89"/>
   <path d="m928.22 400.97h19.625c28.039 0 53.272 9.215 53.272 41.66 0 32.437-24.432 43.656-53.272 43.656h-19.625zm-56.078 129.38h70.898c60.877 0 116.56-17.625 116.56-84.512 0-65.289-47.67-88.922-107.75-88.922h-23.629v-106.14h-56.078v279.58"/>
   <path d="m1299.1 254.78c-20.43-4.804-42.46-8.808-63.68-8.808-90.52 0-153.41 45.258-153.41 139.79 0 95.726 58.48 149.4 153.41 149.4 18.42 0 42.85-3.605 63.28-11.617l-4-47.262c-21.23 12.016-40.46 14.817-60.48 14.817-57.68 0-93.73-44.059-93.73-101.33 0-56.879 35.25-99.739 94.93-99.739 22.02 0 48.06 4.809 61.28 11.618l2.4-46.864"/>
   <path d="m1336.4 530.35h56.08v-120.16l100.93 120.16h68.89l-114.95-131.77 119.76-147.8h-73.3l-100.53 129.77h-0.8v-129.77h-56.08v279.58"/>
  </g>
 </g>
</svg>
